# xmcd CD database file
#
# Track frame offsets:
#	150
#	14400
#	28082
#	45410
#	61417
#	75465
#	87300
#	102695
#	117530
#	133695
#
# Disc length: 1928 seconds
#
# Revision: 3
# Processed by: cddbd v1.5.2PL0 Copyright (c) Steve Scherf et al.
# Submitted via: CDex 1.51
#
DISCID=8307860a
DTITLE=Dolly Parton - Heartbreaker
DYEAR=1978
DGENRE=Country
TTITLE0=I really got the feeling
TTITLE1=It's too late to love me now
TTITLE2=We're through forever
TTITLE3=Sure thing
TTITLE4=With you gone
TTITLE5=Baby I'm burnin'
TTITLE6=Nickels and dimes
TTITLE7=The man
TTITLE8=Heartbreaker
TTITLE9=I wanna fall in love
EXTD=YEAR: 1978
EXTT0=
EXTT1=
EXTT2=
EXTT3=
EXTT4=
EXTT5=
EXTT6=
EXTT7=
EXTT8=
EXTT9=
PLAYORDER=
